<?xml version="1.0" encoding="UTF-8"?>
<svg width="34px" height="40px" viewBox="0 0 34 40" version="1.1" xmlns="http://www.w3.org/2000/svg" xmlns:xlink="http://www.w3.org/1999/xlink">
    <!-- Generator: Sketch 64 (93537) - https://sketch.com -->
    <title>group_marker</title>
    <desc>Created with Sketch.</desc>
    <g id="Page-1" stroke="none" stroke-width="1" fill="none" fill-rule="evenodd">
        <g id="Artboard" transform="translate(-119.000000, -206.000000)" stroke="#FFFFFF">
            <g id="group_marker" transform="translate(119.000000, 206.000000)">
                <path d="M8,34.4716464 C9.38541738,34.4716464 8,33.3026415 14.1063324,25.2708685 C14.6754251,24.273367 15,23.1223035 15,21.8965517 C15,18.0876914 11.8659932,15 8,15 C4.13400675,15 1,18.0876914 1,21.8965517 C1,23.2321626 1.38536274,24.4790973 2.05251885,25.5353171 C8,33.3026415 6.61458262,34.4716464 8,34.4716464 Z" id="Oval-Copy-2" fill="#FFFFFF"></path>
                <path d="M8,34.4716464 C9.38541738,34.4716464 8,33.3026415 14.1063324,25.2708685 C14.6754251,24.273367 15,23.1223035 15,21.8965517 C15,18.0876914 11.8659932,15 8,15 C4.13400675,15 1,18.0876914 1,21.8965517 C1,23.2321626 1.38536274,24.4790973 2.05251885,25.5353171 C8,33.3026415 6.61458262,34.4716464 8,34.4716464 Z" id="Oval-Copy" fill="#F56060" opacity="0.578055246"></path>
                <path d="M23.5,35.260305 C25.3802093,35.260305 23.5,33.6236981 31.7871654,22.3792159 C32.5595056,20.9827138 33,19.3712249 33,17.6551724 C33,12.3227679 28.7467051,8 23.5,8 C18.2532949,8 14,12.3227679 14,17.6551724 C14,19.5250276 14.5229923,21.2707363 15.4284184,22.749444 C23.5,33.6236981 21.6197907,35.260305 23.5,35.260305 Z" id="Oval-Copy-3" fill="#FFFFFF"></path>
                <path d="M23.5,35.260305 C25.3802093,35.260305 23.5,33.6236981 31.7871654,22.3792159 C32.5595056,20.9827138 33,19.3712249 33,17.6551724 C33,12.3227679 28.7467051,8 23.5,8 C18.2532949,8 14,12.3227679 14,17.6551724 C14,19.5250276 14.5229923,21.2707363 15.4284184,22.749444 C23.5,33.6236981 21.6197907,35.260305 23.5,35.260305 Z" id="Oval-Copy" fill="#F56060" opacity="0.727213542"></path>
                <path d="M17.5,38.9697106 C20.1718764,38.9697106 17.5,36.6901509 29.2764982,21.0281936 C30.3740342,19.0830657 31,16.8384918 31,14.4482759 C31,7.02099819 24.9558441,1 17.5,1 C10.0441559,1 4,7.02099819 4,14.4482759 C4,17.0527171 4.74319958,19.4842398 6.02985779,21.5438684 C17.5,36.6901509 14.8281236,38.9697106 17.5,38.9697106 Z" id="Oval-Copy" fill="#F56060"></path>
            </g>
        </g>
    </g>
</svg>