<?xml version="1.0" encoding="UTF-8"?>
<svg width="29px" height="40px" viewBox="0 0 29 40" version="1.1" xmlns="http://www.w3.org/2000/svg" xmlns:xlink="http://www.w3.org/1999/xlink">
    <!-- Generator: Sketch 64 (93537) - https://sketch.com -->
    <title>marker_fashion</title>
    <desc>Created with Sketch.</desc>
    <g id="Page-1" stroke="none" stroke-width="1" fill="none" fill-rule="evenodd">
        <g id="Artboard" transform="translate(-153.000000, -139.000000)">
            <g id="Marker" transform="translate(154.000000, 140.000000)">
                <g stroke-width="1" fill-rule="evenodd" fill="#813232" id="Oval-Copy" stroke="#FFFFFF">
                    <path d="M13.5,37.9697106 C16.1718764,37.9697106 13.5,35.6901509 25.2764982,20.0281936 C26.3740342,18.0830657 27,15.8384918 27,13.4482759 C27,6.02099819 20.9558441,-2.38889368e-15 13.5,-2.38889368e-15 C6.04415588,-2.38889368e-15 0,6.02099819 0,13.4482759 C0,16.0527171 0.743199576,18.4842398 2.02985779,20.5438684 C13.5,35.6901509 10.8281236,37.9697106 13.5,37.9697106 Z"></path>
                </g>
                <g id="cat_fashion" fill="#FFFFFF" fill-rule="nonzero">
                    <path d="M18.9135,20.223 L18.9135,12.096 L21.6135,13.446 L22.9905,10.071 L18.9135,8.019 L16.7805,8.019 C16.6365,8.613 16.3215,9.1035 15.8355,9.4905 C15.3495,9.8775 14.7915,10.071 14.1615,10.071 C13.5315,10.071 12.978,9.8775 12.501,9.4905 C12.024,9.1035 11.7135,8.613 11.5695,8.019 L11.5695,8.019 L9.4365,8.019 L5.3595,10.071 L6.7095,13.446 L9.4365,12.096 L9.4365,20.223 L18.9135,20.223 Z" id="∞"></path>
                </g>
            </g>
        </g>
    </g>
</svg>