<?xml version="1.0" encoding="UTF-8"?>
<svg width="29px" height="40px" viewBox="0 0 29 40" version="1.1" xmlns="http://www.w3.org/2000/svg" xmlns:xlink="http://www.w3.org/1999/xlink">
    <!-- Generator: Sketch 64 (93537) - https://sketch.com -->
    <title>marker_books</title>
    <desc>Created with Sketch.</desc>
    <g id="Page-1" stroke="none" stroke-width="1" fill="none" fill-rule="evenodd">
        <g id="Artboard" transform="translate(-153.000000, -97.000000)">
            <g id="Marker" transform="translate(154.000000, 98.000000)">
                <g stroke-width="1" fill-rule="evenodd" fill="#813232" id="Oval-Copy" stroke="#FFFFFF">
                    <path d="M13.5,37.9697106 C16.1718764,37.9697106 13.5,35.6901509 25.2764982,20.0281936 C26.3740342,18.0830657 27,15.8384918 27,13.4482759 C27,6.02099819 20.9558441,-2.38889368e-15 13.5,-2.38889368e-15 C6.04415588,-2.38889368e-15 0,6.02099819 0,13.4482759 C0,16.0527171 0.743199576,18.4842398 2.02985779,20.5438684 C13.5,35.6901509 10.8281236,37.9697106 13.5,37.9697106 Z"></path>
                </g>
                <g id="cat_books" fill="#FFFFFF" fill-rule="nonzero">
                    <path d="M17.2935,22.248 L17.2935,9.558 L8.7885,7.101 L11.1105,5.346 L19.6155,7.803 L19.6155,20.25 C19.6155,20.484 19.7235,20.601 19.9395,20.601 C20.1555,20.601 20.2635,20.484 20.2635,20.25 L20.2635,20.25 L20.2635,7.56 C20.2635,7.38 20.1825,7.272 20.0205,7.236 L20.0205,7.236 L11.1105,4.644 C11.0205,4.608 10.9305,4.626 10.8405,4.698 L10.8405,4.698 L8.1945,6.696 C8.1225,6.768 8.0865,6.858 8.0865,6.966 L8.0865,6.966 L8.0865,19.575 L17.2935,22.248 Z" id="B"></path>
                </g>
            </g>
        </g>
    </g>
</svg>