<?xml version="1.0" encoding="UTF-8"?>
<svg width="29px" height="40px" viewBox="0 0 29 40" version="1.1" xmlns="http://www.w3.org/2000/svg" xmlns:xlink="http://www.w3.org/1999/xlink">
    <!-- Generator: Sketch 64 (93537) - https://sketch.com -->
    <title>marker_medical</title>
    <desc>Created with Sketch.</desc>
    <g id="Page-1" stroke="none" stroke-width="1" fill="none" fill-rule="evenodd">
        <g id="Artboard" transform="translate(-54.000000, -139.000000)">
            <g id="Marker" transform="translate(55.000000, 140.000000)">
                <g stroke-width="1" fill-rule="evenodd" fill="#813232" id="Oval-Copy" stroke="#FFFFFF">
                    <path d="M13.5,37.9697106 C16.1718764,37.9697106 13.5,35.6901509 25.2764982,20.0281936 C26.3740342,18.0830657 27,15.8384918 27,13.4482759 C27,6.02099819 20.9558441,-2.38889368e-15 13.5,-2.38889368e-15 C6.04415588,-2.38889368e-15 0,6.02099819 0,13.4482759 C0,16.0527171 0.743199576,18.4842398 2.02985779,20.5438684 C13.5,35.6901509 10.8281236,37.9697106 13.5,37.9697106 Z"></path>
                </g>
                <g id="cat_health" fill="#FFFFFF" fill-rule="nonzero">
                    <path d="M22.3155,18.9 L22.3155,10.773 C22.3155,10.395 22.1805,10.0755 21.9105,9.8145 C21.6405,9.5535 21.3255,9.423 20.9655,9.423 L20.9655,9.423 L18.9135,9.423 C18.9135,8.865 18.7875,8.3385 18.5355,7.8435 C18.2835,7.3485 17.946,6.9165 17.523,6.5475 C17.1,6.1785 16.6005,5.886 16.0245,5.67 C15.4485,5.454 14.8365,5.346 14.1885,5.346 C13.5405,5.346 12.9285,5.454 12.3525,5.67 C11.7765,5.886 11.2725,6.1785 10.8405,6.5475 C10.4085,6.9165 10.0665,7.3485 9.8145,7.8435 C9.5625,8.3385 9.4365,8.865 9.4365,9.423 L9.4365,9.423 L7.4115,9.423 C7.0335,9.423 6.7095,9.5535 6.4395,9.8145 C6.1695,10.0755 6.0345,10.395 6.0345,10.773 L6.0345,10.773 L6.0345,18.9 L22.3155,18.9 Z M17.5635,9.423 L10.7865,9.423 C10.7865,9.045 10.8765,8.6895 11.0565,8.3565 C11.2365,8.0235 11.4795,7.7355 11.7855,7.4925 C12.0915,7.2495 12.4515,7.056 12.8655,6.912 C13.2795,6.768 13.7205,6.696 14.1885,6.696 C14.6565,6.696 15.093,6.768 15.498,6.912 C15.903,7.056 16.2585,7.2495 16.5645,7.4925 C16.8705,7.7355 17.1135,8.0235 17.2935,8.3565 C17.4735,8.6895 17.5635,9.045 17.5635,9.423 L17.5635,9.423 Z M15.5385,17.55 L12.8115,17.55 L12.8115,15.525 L10.7865,15.525 L10.7865,12.798 L12.8115,12.798 L12.8115,10.773 L15.5385,10.773 L15.5385,12.798 L17.5635,12.798 L17.5635,15.525 L15.5385,15.525 L15.5385,17.55 Z" id="F"></path>
                </g>
            </g>
        </g>
    </g>
</svg>