<?xml version="1.0" encoding="UTF-8"?>
<svg width="29px" height="40px" viewBox="0 0 29 40" version="1.1" xmlns="http://www.w3.org/2000/svg" xmlns:xlink="http://www.w3.org/1999/xlink">
    <!-- Generator: Sketch 64 (93537) - https://sketch.com -->
    <title>marker_drinks</title>
    <desc>Created with Sketch.</desc>
    <g id="Page-1" stroke="none" stroke-width="1" fill="none" fill-rule="evenodd">
        <g id="Artboard" transform="translate(-87.000000, -139.000000)">
            <g id="Marker" transform="translate(88.000000, 140.000000)">
                <g stroke-width="1" fill-rule="evenodd" fill="#813232" id="Oval-Copy" stroke="#FFFFFF">
                    <path d="M13.5,37.9697106 C16.1718764,37.9697106 13.5,35.6901509 25.2764982,20.0281936 C26.3740342,18.0830657 27,15.8384918 27,13.4482759 C27,6.02099819 20.9558441,-2.38889368e-15 13.5,-2.38889368e-15 C6.04415588,-2.38889368e-15 0,6.02099819 0,13.4482759 C0,16.0527171 0.743199576,18.4842398 2.02985779,20.5438684 C13.5,35.6901509 10.8281236,37.9697106 13.5,37.9697106 Z"></path>
                </g>
                <g id="cat_drinks" fill="#FFFFFF" fill-rule="nonzero">
                    <path d="M18.8055,22.95 C19.1835,22.95 19.503,22.815 19.764,22.545 C20.025,22.275 20.1555,21.951 20.1555,21.573 L20.1555,21.573 L20.1555,8.829 C20.3535,8.631 20.5155,8.406 20.6415,8.154 C20.7675,7.902 20.8305,7.623 20.8305,7.317 C20.8305,6.741 20.637,6.255 20.25,5.859 C19.863,5.463 19.3815,5.265 18.8055,5.265 C18.3555,5.265 17.9505,5.4 17.5905,5.67 C17.3385,5.346 17.0235,5.085 16.6455,4.887 C16.2675,4.689 15.8625,4.59 15.4305,4.59 C15.0345,4.59 14.6745,4.6665 14.3505,4.8195 C14.0265,4.9725 13.7385,5.175 13.4865,5.427 L13.4865,5.427 L13.1085,5.319 C12.9825,5.283 12.8475,5.265 12.7035,5.265 C12.2895,5.265 11.9115,5.382 11.5695,5.616 C11.1555,5.382 10.7415,5.265 10.3275,5.265 C10.0035,5.265 9.6975,5.328 9.4095,5.454 C9.1215,5.58 8.8695,5.751 8.6535,5.967 C8.4375,6.183 8.2665,6.435 8.1405,6.723 C8.0145,7.011 7.9515,7.317 7.9515,7.641 C7.9515,8.307 8.1765,8.865 8.6265,9.315 L8.6265,9.315 L8.6265,10.071 L7.2765,10.071 C7.0245,10.089 6.7995,10.143 6.6015,10.233 C6.4215,10.323 6.264,10.458 6.129,10.638 C5.994,10.818 5.9265,11.079 5.9265,11.421 L5.9265,11.421 L5.9265,17.523 C5.9445,17.775 5.9985,18 6.0885,18.198 C6.1785,18.378 6.3135,18.5355 6.4935,18.6705 C6.6735,18.8055 6.9345,18.873 7.2765,18.873 L7.2765,18.873 L8.6265,18.873 L8.6265,21.573 C8.6265,21.951 8.7615,22.275 9.0315,22.545 C9.3015,22.815 9.6255,22.95 10.0035,22.95 L10.0035,22.95 L18.8055,22.95 Z M17.4555,21.573 L11.3535,21.573 C10.9755,21.573 10.656,21.4425 10.395,21.1815 C10.134,20.9205 10.0035,20.601 10.0035,20.223 L10.0035,20.223 L10.0035,10.017 L10.3275,10.017 C10.6875,10.017 11.016,9.9495 11.313,9.8145 C11.61,9.6795 11.8665,9.495 12.0825,9.261 C12.2625,9.315 12.4695,9.342 12.7035,9.342 C12.8295,9.342 12.9555,9.333 13.0815,9.315 C13.2075,9.297 13.3245,9.261 13.4325,9.207 C13.9725,9.783 14.6385,10.071 15.4305,10.071 C15.8805,10.071 16.2945,9.972 16.6725,9.774 C17.0505,9.576 17.3655,9.306 17.6175,8.964 C17.9595,9.216 18.3555,9.342 18.8055,9.342 L18.8055,9.342 L18.8055,20.223 C18.8055,20.601 18.6705,20.9205 18.4005,21.1815 C18.1305,21.4425 17.8155,21.573 17.4555,21.573 L17.4555,21.573 Z M14.7285,19.548 L14.7285,10.071 L14.0535,10.071 L14.0535,19.548 L14.7285,19.548 Z M12.0285,19.548 L12.0285,10.071 L11.3535,10.071 L11.3535,19.548 L12.0285,19.548 Z M17.4555,19.548 L17.4555,10.071 L16.7805,10.071 L16.7805,19.548 L17.4555,19.548 Z M8.6265,17.523 L7.2765,17.523 L7.2765,11.421 L8.6265,11.421 L8.6265,17.523 Z" id="รง"></path>
                </g>
            </g>
        </g>
    </g>
</svg>