<?xml version="1.0" encoding="UTF-8"?>
<svg width="29px" height="40px" viewBox="0 0 29 40" version="1.1" xmlns="http://www.w3.org/2000/svg" xmlns:xlink="http://www.w3.org/1999/xlink">
    <!-- Generator: Sketch 64 (93537) - https://sketch.com -->
    <title>marker_food</title>
    <desc>Created with Sketch.</desc>
    <g id="Page-1" stroke="none" stroke-width="1" fill="none" fill-rule="evenodd">
        <g id="Artboard" transform="translate(-219.000000, -97.000000)">
            <g id="Marker" transform="translate(220.000000, 98.000000)">
                <g stroke-width="1" fill-rule="evenodd" fill="#813232" id="Oval-Copy" stroke="#FFFFFF">
                    <path d="M13.5,37.9697106 C16.1718764,37.9697106 13.5,35.6901509 25.2764982,20.0281936 C26.3740342,18.0830657 27,15.8384918 27,13.4482759 C27,6.02099819 20.9558441,-2.38889368e-15 13.5,-2.38889368e-15 C6.04415588,-2.38889368e-15 0,6.02099819 0,13.4482759 C0,16.0527171 0.743199576,18.4842398 2.02985779,20.5438684 C13.5,35.6901509 10.8281236,37.9697106 13.5,37.9697106 Z"></path>
                </g>
                <g id="cat_food" fill="#FFFFFF" fill-rule="nonzero">
                    <path d="M11.4615,24.3 C11.6595,24.3 11.8215,24.237 11.9475,24.111 C12.0735,23.985 12.1365,23.823 12.1365,23.625 L12.1365,23.625 L12.1365,14.148 C12.5145,14.148 12.834,14.013 13.095,13.743 C13.356,13.473 13.4865,13.149 13.4865,12.771 L13.4865,12.771 L13.4865,6.669 L12.1365,6.669 L12.1365,12.096 L11.4615,12.096 L11.4615,6.669 L10.1115,6.669 L10.1115,12.096 L9.4365,12.096 L9.4365,6.669 L8.0865,6.669 L8.0865,12.771 C8.0865,13.149 8.217,13.473 8.478,13.743 C8.739,14.013 9.0585,14.148 9.4365,14.148 L9.4365,14.148 L9.4365,23.625 C9.4365,23.823 9.4995,23.985 9.6255,24.111 C9.7515,24.237 9.9135,24.3 10.1115,24.3 L10.1115,24.3 L11.4615,24.3 Z M18.9135,24.3 C19.1115,24.3 19.2735,24.237 19.3995,24.111 C19.5255,23.985 19.5885,23.823 19.5885,23.625 L19.5885,23.625 L19.5885,8.721 C19.5885,8.145 19.395,7.659 19.008,7.263 C18.621,6.867 18.1395,6.669 17.5635,6.669 C16.9875,6.669 16.506,6.867 16.119,7.263 C15.732,7.659 15.5385,8.145 15.5385,8.721 L15.5385,8.721 L15.5385,16.173 L16.8885,16.173 L16.8885,23.625 C16.8885,23.823 16.9515,23.985 17.0775,24.111 C17.2035,24.237 17.3655,24.3 17.5635,24.3 L17.5635,24.3 L18.9135,24.3 Z" id="H"></path>
                </g>
            </g>
        </g>
    </g>
</svg>