<?xml version="1.0" encoding="UTF-8"?>
<svg width="29px" height="40px" viewBox="0 0 29 40" version="1.1" xmlns="http://www.w3.org/2000/svg" xmlns:xlink="http://www.w3.org/1999/xlink">
    <!-- Generator: Sketch 64 (93537) - https://sketch.com -->
    <title>marker_sports</title>
    <desc>Created with Sketch.</desc>
    <g id="Page-1" stroke="none" stroke-width="1" fill="none" fill-rule="evenodd">
        <g id="Artboard" transform="translate(-219.000000, -139.000000)">
            <g id="Marker" transform="translate(220.000000, 140.000000)">
                <g fill="#813232" id="Oval-Copy" stroke="#FFFFFF">
                    <path d="M13.5,37.9697106 C16.1718764,37.9697106 13.5,35.6901509 25.2764982,20.0281936 C26.3740342,18.0830657 27,15.8384918 27,13.4482759 C27,6.02099819 20.9558441,-2.38889368e-15 13.5,-2.38889368e-15 C6.04415588,-2.38889368e-15 0,6.02099819 0,13.4482759 C0,16.0527171 0.743199576,18.4842398 2.02985779,20.5438684 C13.5,35.6901509 10.8281236,37.9697106 13.5,37.9697106 Z"></path>
                </g>
                <g id="cat_sports" fill="#FFFFFF">
                    <g id="Group" transform="translate(5.400000, 4.050000)">
                        <polygon id="Fill-440" points="2.475 9.24777 5.775 6.00777 7.425 6.00777 4.95 10.53 4.95 15.39 0 15.39 0 17.01 6.6 17.01 6.6 12.15 9.9 14.91858 9.9 20.25 11.55 20.25 11.55 13.77 8.25 10.86858 9.075 8.91 9.9 9.72 14.85 9.72 14.85 8.1 10.725 8.1 10.725 4.05 4.95 4.05 1.65 8.43777"></polygon>
                        <path d="M13.5,2.025 C13.5,0.9072 12.5928,0 11.475,0 C10.3572,0 9.45,0.9072 9.45,2.025 C9.45,3.1428 10.3572,4.05 11.475,4.05 C12.5928,4.05 13.5,3.1428 13.5,2.025" id="Fill-442"></path>
                    </g>
                </g>
            </g>
        </g>
    </g>
</svg>