<?xml version="1.0" encoding="UTF-8"?>
<svg width="29px" height="40px" viewBox="0 0 29 40" version="1.1" xmlns="http://www.w3.org/2000/svg" xmlns:xlink="http://www.w3.org/1999/xlink">
    <!-- Generator: Sketch 64 (93537) - https://sketch.com -->
    <title>marker_furniture</title>
    <desc>Created with Sketch.</desc>
    <g id="Page-1" stroke="none" stroke-width="1" fill="none" fill-rule="evenodd">
        <g id="Artboard" transform="translate(-186.000000, -139.000000)">
            <g id="Marker" transform="translate(187.000000, 140.000000)">
                <g fill="#813232" id="Oval-Copy" stroke="#FFFFFF">
                    <path d="M13.5,37.9697106 C16.1718764,37.9697106 13.5,35.6901509 25.2764982,20.0281936 C26.3740342,18.0830657 27,15.8384918 27,13.4482759 C27,6.02099819 20.9558441,-2.38889368e-15 13.5,-2.38889368e-15 C6.04415588,-2.38889368e-15 0,6.02099819 0,13.4482759 C0,16.0527171 0.743199576,18.4842398 2.02985779,20.5438684 C13.5,35.6901509 10.8281236,37.9697106 13.5,37.9697106 Z"></path>
                </g>
                <g id="cat_furniture" fill="#FFFFFF">
                    <g id="Fill-758" transform="translate(5.400000, 5.400000)">
                        <path d="M9.50278132,0 C9.88852032,0 10.4040079,0.253747979 10.6480755,0.565265671 L10.6480755,0.565265671 L16.0715658,7.47788713 C16.3163347,7.78940482 16.200613,8.04388406 15.814874,8.04388406 L15.814874,8.04388406 L12.308,8.043 L12.3082961,11.3342714 C12.3082961,11.5360998 12.1511951,11.6999025 11.9576243,11.6999025 C11.7640535,11.6999025 11.6069525,11.5360998 11.6069525,11.3342714 L11.606,8.043 L8.801,8.043 L8.801,16.087 L11.6066018,16.0874756 L12.3079455,17.55 L3.89182184,17.55 L4.59316547,16.0874756 L7.398,16.087 L7.398,8.043 L0.385314067,8.04388406 C0.0292472983,8.04388406 -0.0967455582,7.82704968 0.0779435948,7.54867344 L0.127920953,7.47788713 L5.55141128,0.565265671 C5.79618021,0.253747979 6.31166778,0 6.69740678,0 L6.69740678,0 Z" id="Fill-757"></path>
                    </g>
                </g>
            </g>
        </g>
    </g>
</svg>