<?xml version="1.0" encoding="UTF-8"?>
<svg width="29px" height="40px" viewBox="0 0 29 40" version="1.1" xmlns="http://www.w3.org/2000/svg" xmlns:xlink="http://www.w3.org/1999/xlink">
    <!-- Generator: Sketch 64 (93537) - https://sketch.com -->
    <title>marker_office</title>
    <desc>Created with Sketch.</desc>
    <g id="Page-1" stroke="none" stroke-width="1" fill="none" fill-rule="evenodd">
        <g id="Artboard" transform="translate(-186.000000, -97.000000)">
            <g id="Marker" transform="translate(187.000000, 98.000000)">
                <g stroke-width="1" fill-rule="evenodd" fill="#813232" id="Oval-Copy" stroke="#FFFFFF">
                    <path d="M13.5,37.9697106 C16.1718764,37.9697106 13.5,35.6901509 25.2764982,20.0281936 C26.3740342,18.0830657 27,15.8384918 27,13.4482759 C27,6.02099819 20.9558441,-2.38889368e-15 13.5,-2.38889368e-15 C6.04415588,-2.38889368e-15 0,6.02099819 0,13.4482759 C0,16.0527171 0.743199576,18.4842398 2.02985779,20.5438684 C13.5,35.6901509 10.8281236,37.9697106 13.5,37.9697106 Z"></path>
                </g>
                <g id="cat_office" fill="#FFFFFF" fill-rule="nonzero">
                    <path d="M18.9135,18.9 L18.9135,8.046 L18.2385,8.046 L18.2385,7.371 C18.2385,6.705 18.0225,6.201 17.5905,5.859 C17.1585,5.517 16.6995,5.346 16.2135,5.346 L16.2135,5.346 L12.1365,5.346 C11.4705,5.346 10.9665,5.5575 10.6245,5.9805 C10.2825,6.4035 10.1115,6.867 10.1115,7.371 L10.1115,7.371 L10.1115,8.046 L8.7615,8.046 L8.7615,18.9 L18.9135,18.9 Z M16.8885,8.046 L11.4615,8.046 L11.4615,7.371 C11.4615,7.245 11.4885,7.137 11.5425,7.047 C11.5785,6.957 11.6415,6.876 11.7315,6.804 C11.8215,6.732 11.9565,6.696 12.1365,6.696 L12.1365,6.696 L16.2135,6.696 C16.3395,6.696 16.4475,6.723 16.5375,6.777 C16.6275,6.813 16.7085,6.8805 16.7805,6.9795 C16.8525,7.0785 16.8885,7.209 16.8885,7.371 L16.8885,7.371 L16.8885,8.046 Z M22.3155,18.9 C22.4955,18.9 22.653,18.8325 22.788,18.6975 C22.923,18.5625 22.9905,18.405 22.9905,18.225 L22.9905,18.225 L22.9905,8.721 C22.9905,8.523 22.923,8.361 22.788,8.235 C22.653,8.109 22.4955,8.046 22.3155,8.046 L22.3155,8.046 L19.5885,8.046 L19.5885,18.9 L22.3155,18.9 Z M8.0595,18.9 L8.0595,8.046 L6.0345,8.046 C5.8365,8.046 5.6745,8.109 5.5485,8.235 C5.4225,8.361 5.3595,8.523 5.3595,8.721 L5.3595,8.721 L5.3595,18.225 C5.3595,18.405 5.4225,18.5625 5.5485,18.6975 C5.6745,18.8325 5.8365,18.9 6.0345,18.9 L6.0345,18.9 L8.0595,18.9 Z" id="2"></path>
                </g>
            </g>
        </g>
    </g>
</svg>