<?xml version="1.0" encoding="UTF-8"?>
<svg width="29px" height="40px" viewBox="0 0 29 40" version="1.1" xmlns="http://www.w3.org/2000/svg" xmlns:xlink="http://www.w3.org/1999/xlink">
    <!-- Generator: Sketch 64 (93537) - https://sketch.com -->
    <title>marker_hardwarestore</title>
    <desc>Created with Sketch.</desc>
    <g id="Page-1" stroke="none" stroke-width="1" fill="none" fill-rule="evenodd">
        <g id="Artboard" transform="translate(-87.000000, -97.000000)">
            <g id="Marker" transform="translate(88.000000, 98.000000)">
                <g fill="#813232" id="Oval-Copy" stroke="#FFFFFF">
                    <path d="M13.5,37.9697106 C16.1718764,37.9697106 13.5,35.6901509 25.2764982,20.0281936 C26.3740342,18.0830657 27,15.8384918 27,13.4482759 C27,6.02099819 20.9558441,-2.38889368e-15 13.5,-2.38889368e-15 C6.04415588,-2.38889368e-15 0,6.02099819 0,13.4482759 C0,16.0527171 0.743199576,18.4842398 2.02985779,20.5438684 C13.5,35.6901509 10.8281236,37.9697106 13.5,37.9697106 Z"></path>
                </g>
                <g id="cat_hardwarestore" fill="#FFFFFF">
                    <g id="Group" transform="translate(14.175000, 14.175000) rotate(-315.000000) translate(-14.175000, -14.175000) translate(9.450000, 5.400000)">
                        <path d="M0.0417161115,4.725 C0.0417161115,4.725 -0.626577091,0.675 3.38652694,0.675 L3.42934052,0.675 L3.43662823,0.575601052 C3.48462664,0.251033058 3.7638216,0 4.09830268,0 L4.09830268,0 L4.76726485,0 C5.13519404,0 5.43622701,0.30375 5.43622701,0.675 L5.43622701,0.675 L6.77415134,0.675 C6.77415134,0.30375 7.07518431,0 7.44311351,0 L8.78103784,0 C9.14896703,0 9.45,0.30375 9.45,0.675 L9.45,3.375 C9.45,3.74625 9.14896703,4.05 8.78103784,4.05 L7.44311351,4.05 C7.07518431,4.05 6.77415134,3.74625 6.77415134,3.375 L5.436,3.375 L5.43622701,9.45 C5.43622701,9.76821429 5.53501497,10.2361959 5.66687268,10.5729717 L5.7352531,10.729125 C5.7352531,10.729125 6.10518918,11.475 6.10518918,12.15 L6.10518918,12.15 L6.10518918,16.875 C6.10518918,17.24625 5.8041562,17.55 5.43622701,17.55 L5.43622701,17.55 L3.42934052,17.55 C3.06141132,17.55 2.76037835,17.24625 2.76037835,16.875 L2.76037835,16.875 L2.76037835,12.15 C2.76037835,11.475 3.13031443,10.729125 3.13031443,10.729125 C3.29487912,10.39635 3.42934052,9.82125 3.42934052,9.45 L3.42934052,9.45 L3.429,3.375 L3.20819059,3.37512678 C1.98707329,3.37778926 1.31946425,3.43636364 0.0417161115,4.725 Z" id="Combined-Shape"></path>
                    </g>
                </g>
            </g>
        </g>
    </g>
</svg>