<?xml version="1.0" encoding="UTF-8"?>
<svg width="29px" height="40px" viewBox="0 0 29 40" version="1.1" xmlns="http://www.w3.org/2000/svg" xmlns:xlink="http://www.w3.org/1999/xlink">
    <!-- Generator: Sketch 64 (93537) - https://sketch.com -->
    <title>marker_flowers</title>
    <desc>Created with Sketch.</desc>
    <g id="Page-1" stroke="none" stroke-width="1" fill="none" fill-rule="evenodd">
        <g id="Artboard" transform="translate(-120.000000, -97.000000)">
            <g id="Marker" transform="translate(121.000000, 98.000000)">
                <g stroke-width="1" fill="#813232" id="Oval-Copy" stroke="#FFFFFF">
                    <path d="M13.5,37.9697106 C16.1718764,37.9697106 13.5,35.6901509 25.2764982,20.0281936 C26.3740342,18.0830657 27,15.8384918 27,13.4482759 C27,6.02099819 20.9558441,-2.38889368e-15 13.5,-2.38889368e-15 C6.04415588,-2.38889368e-15 0,6.02099819 0,13.4482759 C0,16.0527171 0.743199576,18.4842398 2.02985779,20.5438684 C13.5,35.6901509 10.8281236,37.9697106 13.5,37.9697106 Z"></path>
                </g>
                <g id="cat_flowers" fill="#FFFFFF">
                    <path d="M15.8161551,13.122 L15.681664,13.122 C15.0957189,13.122 14.6210016,13.256082 14.227706,13.463172 L14.227706,12.338568 C17.3268174,11.557242 13.500727,5.4 13.500727,5.4 C13.500727,5.4 9.67536349,11.557242 12.773748,12.338568 L12.773748,15.023718 C12.3804523,14.816628 11.906462,14.682546 11.31979,14.682546 L11.1867528,14.682546 C10.21042,12.412278 4.05,15.384546 4.05,15.384546 C4.05,15.384546 10.21042,18.356112 11.1860258,16.086546 L11.31979,16.086546 C12.6479806,16.086546 12.7686591,17.164818 12.773748,17.490546 L12.773748,18.036 L12.773748,19.596546 L12.773748,22.248 C12.773748,22.636206 13.0994346,22.95 13.500727,22.95 C13.9027464,22.95 14.227706,22.636206 14.227706,22.248 L14.227706,19.596546 L14.227706,18.036 L14.227706,17.490546 L14.227706,15.93 C14.227706,15.695532 14.2982229,14.526 15.681664,14.526 L15.8154281,14.526 C16.7910339,16.795566 22.95,13.824 22.95,13.824 C22.95,13.824 16.7917609,10.853136 15.8161551,13.122" id="Fill-884"></path>
                </g>
            </g>
        </g>
    </g>
</svg>